<?xml version="1.0" standalone="no"?><!DOCTYPE svg PUBLIC "-//W3C//DTD SVG 1.1//EN" "http://www.w3.org/Graphics/SVG/1.1/DTD/svg11.dtd"><svg t="1582370496865" class="icon" viewBox="0 0 1024 1024" version="1.1" xmlns="http://www.w3.org/2000/svg" p-id="3131" xmlns:xlink="http://www.w3.org/1999/xlink" width="16" height="16"><defs><style type="text/css"></style></defs><path d="M325.778773 845.921524V347.282286a27.794286 27.794286 0 0 1 27.940572-27.696762c15.408762 0 37.254095 12.385524 37.254095 27.696762v498.639238c0 15.262476-21.796571 27.696762-37.254095 27.696762a27.843048 27.843048 0 0 1-27.940572-27.696762z m148.918858 0V347.282286a27.794286 27.794286 0 0 1 27.940571-27.696762c15.408762 0 37.254095 12.385524 37.254095 27.696762v498.639238c0 15.262476-21.796571 27.696762-37.254095 27.696762a27.843048 27.843048 0 0 1-27.940571-27.696762z m158.23238 0V347.282286c0-15.311238 12.483048-27.696762 27.940572-27.696762s37.254095 12.385524 37.254095 27.696762v498.639238c0 15.262476-21.796571 27.696762-37.254095 27.696762s-27.940571-12.434286-27.940572-27.696762z m148.918858 74.654476l47.88419-685.543619H198.363916l43.641905 666.721524c3.023238 21.942857 7.265524 56.32 55.881143 56.32h456.118857c15.067429 0.048762 24.673524-8.728381 27.843048-37.497905z m-27.452953 103.277714H279.259916c-67.193905 0-100.352-49.347048-102.4-84.504381L133.071726 235.032381H27.941059A27.989333 27.989333 0 0 1 0.000488 206.896762c0-15.555048 12.483048-37.595429 27.940571-37.595429h260.632381V66.023619C287.890773 20.382476 327.290392 0.292571 362.984107 0.292571h297.837714c16.920381 1.26781 33.938286-0.292571 55.881143 28.135619 19.309714 22.137905 17.993143 33.109333 18.627047 46.957715v93.915428h260.632381c15.408762 0 27.89181 21.991619 27.89181 37.595429a28.038095 28.038095 0 0 1-27.89181 28.184381H892.343345l-48.079238 725.333333c-0.975238 15.213714-27.062857 63.439238-89.868191 63.439238zM642.487345 66.023619H386.292297c-24.429714 0-32.572952 14.774857-32.572952 36.181333v67.096381h316.464762v-67.779047c0-22.28419-15.60381-35.498667-27.696762-35.498667z" p-id="3132" fill="#707070"></path></svg>