<?xml version="1.0" standalone="no"?><!DOCTYPE svg PUBLIC "-//W3C//DTD SVG 1.1//EN" "http://www.w3.org/Graphics/SVG/1.1/DTD/svg11.dtd"><svg t="1581871710861" class="icon" viewBox="0 0 1024 1024" version="1.1" xmlns="http://www.w3.org/2000/svg" p-id="2587" xmlns:xlink="http://www.w3.org/1999/xlink" width="48" height="48"><defs><style type="text/css"></style></defs><path d="M1009.894511 941.340375l-190.533723-186.58711a449.0369 449.0369 0 0 0-23.533509-620.787667 473.66669 473.66669 0 0 0-659.084434 0 449.18307 449.18307 0 0 0 0 645.344373 474.762972 474.762972 0 0 0 610.994219 39.319963l192.50703 188.706587a51.159803 51.159803 0 0 0 32.742274 15.859539 51.232888 51.232888 0 0 0 34.861751-13.813147 48.017129 48.017129 0 0 0 2.046392-67.969452zM98.372993 456.71087A364.330883 364.330883 0 0 1 466.577403 98.665334a364.330883 364.330883 0 0 1 367.619728 357.972451 364.403968 364.403968 0 0 1-367.619728 357.899364 364.330883 364.330883 0 0 1-368.20441-357.899364z" fill="#2c2c2c" p-id="2588"></path></svg>