<?xml version="1.0" standalone="no"?><!DOCTYPE svg PUBLIC "-//W3C//DTD SVG 1.1//EN" "http://www.w3.org/Graphics/SVG/1.1/DTD/svg11.dtd"><svg class="icon" width="16px" height="16.00px" viewBox="0 0 1024 1024" version="1.1" xmlns="http://www.w3.org/2000/svg"><path fill="#FEFEFE" d="M640 256 128 256l0 85.333333 512 0L640 256zM640 426.666667 128 426.666667l0 85.333333 512 0L640 426.666667zM128 682.666667l341.333333 0 0-85.333333L128 597.333333 128 682.666667zM725.333333 256l0 349.226667C711.893333 600.32 697.813333 597.333333 682.666667 597.333333c-70.613333 0-128 57.386667-128 128s57.386667 128 128 128 128-57.386667 128-128L810.666667 341.333333l128 0 0-85.333333L725.333333 256z" /></svg>