<?xml version="1.0" standalone="no"?><!DOCTYPE svg PUBLIC "-//W3C//DTD SVG 1.1//EN" "http://www.w3.org/Graphics/SVG/1.1/DTD/svg11.dtd"><svg t="1582622427641" class="icon" viewBox="0 0 1024 1024" version="1.1" xmlns="http://www.w3.org/2000/svg" p-id="7391" data-spm-anchor-id="a313x.7781069.0.i8" xmlns:xlink="http://www.w3.org/1999/xlink" width="16" height="16"><defs><style type="text/css"></style></defs><path d="M934.5 1016.5h-54.7c-25.5 0-46.5-20.9-46.5-46.5V592.5c-5.1 4.1-11.2 8.7-17.9 12.8l-639.5 397.4c-72.5 44.9-131.8 11.7-131.8-73.6V93.5c0-85.3 58.7-117.5 130.3-71L817 438.8c5.6 3.6 11.2 7.7 15.8 11.7V54.1c0-26.1 20.9-46.5 46.5-46.5h55.2c25.5 0 46.5 21 46.5 46.5V970c0 25.5-21 46.5-46.5 46.5" p-id="7392" fill="#FEFEFE"></path></svg>