<?xml version="1.0" standalone="no"?><!DOCTYPE svg PUBLIC "-//W3C//DTD SVG 1.1//EN" "http://www.w3.org/Graphics/SVG/1.1/DTD/svg11.dtd"><svg class="icon" width="16px" height="14.91px" viewBox="0 0 1099 1024" version="1.1" xmlns="http://www.w3.org/2000/svg"><path fill="#FEFEFE" d="M958.88394 698.610701c-7.82788-7.82788-19.538387-15.655759-31.311518-11.710508a43.460388 43.460388 0 0 0-43.08465 43.022026 48.219738 48.219738 0 0 0 15.65576 31.311518l50.849905 50.912529a297.208933 297.208933 0 0 1-148.729712-62.623036c-3.882628 0-3.882628-3.945251-7.82788-7.82788l-461.782273-485.328536C254.374776 170.260139 160.502843 123.292861 46.967278 123.292861a43.460388 43.460388 0 0 0-43.08465 43.022026c0 23.483639 19.601011 39.139398 43.08465 39.139398 89.989304 0 164.385472 39.139398 223.063257 105.707687l469.672776 489.211163 7.890503 7.82788a405.734656 405.734656 0 0 0 211.290126 86.106676l-58.677785 54.795157a46.842032 46.842032 0 0 0-19.601011 35.25677 41.393827 41.393827 0 0 0 47.029901 39.139398 48.094492 48.094492 0 0 0 31.311518-15.65576l121.363445-113.535565a49.534822 49.534822 0 0 0 0-70.450917l-121.363445-125.246073zM955.001312 17.585175C939.345553-1.953213 915.861914-6.148956 896.260903 9.757295a35.695131 35.695131 0 0 0-15.655759 31.311519c0 15.655759 3.945251 27.42889 19.601011 35.25677l50.849905 50.849905c-89.989304 11.773131-172.213351 46.967278-234.836388 109.590315l-140.901833 144.847084a37.573822 37.573822 0 0 0 0 54.795157 47.718754 47.718754 0 0 0 62.623037 0l137.019205-144.847084a323.260116 323.260116 0 0 1 180.041231-86.106676l-54.795157 54.795158a48.407607 48.407607 0 0 0-15.65576 31.311518c0 23.483639 19.538387 43.084649 39.139398 43.084649a63.061398 63.061398 0 0 0 35.194147-11.77313l129.191325-125.246074a42.521042 42.521042 0 0 0 0-58.677786L955.001312 17.585175m-536.178442 547.951572a44.399733 44.399733 0 0 0-31.311518 11.773131l-144.847084 148.729713C183.986482 780.834748 125.246074 807.950523 46.967278 807.950523h-3.882629A43.460388 43.460388 0 0 0 0 851.285664c0 23.483639 19.601011 39.139398 43.084649 39.139398h3.882629c101.762435 0 180.041231-39.139398 258.320027-105.707686l148.729712-152.612341a37.573822 37.573822 0 0 0 0-54.795157 63.249267 63.249267 0 0 0-35.194147-11.773131z" /></svg>