<?xml version="1.0" standalone="no"?><!DOCTYPE svg PUBLIC "-//W3C//DTD SVG 1.1//EN" "http://www.w3.org/Graphics/SVG/1.1/DTD/svg11.dtd"><svg t="1582785767461" class="icon" viewBox="0 0 1024 1024" version="1.1" xmlns="http://www.w3.org/2000/svg" p-id="4309" xmlns:xlink="http://www.w3.org/1999/xlink" width="16" height="16"><defs><style type="text/css"></style></defs><path d="M810.346667 800.618667c0 23.552-19.114667 42.666667-42.666667 42.666667l-576 0c-23.552 0-42.666667-19.114667-42.666667-42.666667l0-533.333333c0-23.552 19.114667-42.666667 42.666667-42.666667l277.333333 0 0-64-320 0c-35.328 0-64 28.650667-64 64l0 618.666667c0 35.328 28.672 64 64 64l661.333333 0c35.349333 0 64-28.672 64-64l0-213.333333-64 0L810.346667 800.618667zM929.621333 277.312l-172.181333-172.181333c-12.501333-12.501333-32.746667-12.501333-45.248 0-12.501333 12.48-12.501333 32.746667 0 45.248l98.56 98.56C586.048 244.650667 379.328 402.432 307.2 618.304l59.2 28.416c63.616-192.341333 275.541333-353.514667 478.208-330.602667l-131.861333 131.84c-12.373333 12.394667-12.373333 32.490667 0 44.885333 12.394667 12.394667 32.469333 12.394667 44.885333 0l166.954667-166.976c1.685333-1.130667 3.541333-1.834667 5.013333-3.328C942.122667 310.08 942.122667 289.813333 929.621333 277.312z" p-id="4310" fill="#dbdbdb"></path></svg>