<?xml version="1.0" standalone="no"?><!DOCTYPE svg PUBLIC "-//W3C//DTD SVG 1.1//EN" "http://www.w3.org/Graphics/SVG/1.1/DTD/svg11.dtd"><svg class="icon" width="48px" height="48.00px" viewBox="0 0 1024 1024" version="1.1" xmlns="http://www.w3.org/2000/svg"><path fill="#1D82FE" d="M320 345.6h-53.76c-28.16 0-51.2 23.04-51.2 51.2v384c0 28.16 23.04 51.2 51.2 51.2h53.76c28.16 0 51.2-23.04 51.2-51.2v-384c0-28.16-23.04-51.2-51.2-51.2zM788.48 448h-53.76c-28.16 0-51.2 23.04-51.2 51.2v281.6c0 28.16 23.04 51.2 51.2 51.2h53.76c28.16 0 51.2-23.04 51.2-51.2v-281.6c0-28.16-23.04-51.2-51.2-51.2zM555.52 192h-53.76c-28.16 0-51.2 23.04-51.2 51.2v537.6c0 28.16 23.04 51.2 51.2 51.2h53.76c28.16 0 51.2-23.04 51.2-51.2v-537.6c0-28.16-23.04-51.2-51.2-51.2z m-2.56 230.4c0 12.8-5.12 17.92-12.8 17.92-10.24 0-15.36-5.12-15.36-15.36v-122.88l-17.92 7.68c-10.24 5.12-15.36 2.56-20.48-7.68-5.12-7.68 0-15.36 7.68-20.48l33.28-17.92c15.36-7.68 23.04-2.56 25.6 15.36v143.36z"  /><path fill="#1D82FE" d="M875.52 1024H148.48C64 1024 0 960 0 875.52V148.48C0 64 64 0 148.48 0h729.6C960 0 1024 64 1024 148.48v729.6c0 81.92-64 145.92-148.48 145.92zM148.48 51.2C92.16 51.2 51.2 92.16 51.2 148.48v729.6C51.2 931.84 92.16 972.8 148.48 972.8h729.6c53.76 0 97.28-40.96 97.28-97.28V148.48C972.8 92.16 931.84 51.2 875.52 51.2H148.48z"  /></svg>