<?xml version="1.0" standalone="no"?><!DOCTYPE svg PUBLIC "-//W3C//DTD SVG 1.1//EN" "http://www.w3.org/Graphics/SVG/1.1/DTD/svg11.dtd"><svg class="icon" width="48px" height="48.00px" viewBox="0 0 1024 1024" version="1.1" xmlns="http://www.w3.org/2000/svg"><path fill="#1D82FE" d="M1010.080817 1009.954423c-17.489825 17.474025-45.817969 17.474025-63.307793 0l-51.20553-51.20553c-34.584667 22.814189-75.899835 36.30679-120.422261 36.30679-121.101631 0-219.246879-98.33484-219.246879-219.610263s98.161048-219.578665 219.246879-219.578665c121.11743 0 219.278478 98.303242 219.278478 219.578665 0 44.238039-13.318809 85.25302-35.817012 119.742891l51.458319 51.42672C1027.539043 964.136454 1027.539043 992.464598 1010.080817 1009.954423zM775.161033 643.71086c-72.818972 0-131.829355 58.947187-131.829355 131.71876s59.010384 131.750359 131.829355 131.750359 131.860954-58.978785 131.860954-131.750359S847.995803 643.71086 775.161033 643.71086zM892.344437 497.377748c-24.220326 0-43.890454-19.654329-43.890454-43.890454l0-14.630151c0-15.246324 0-29.718482 0-43.890454 0-157.692809 0-248.680974 0-248.680974 0-32.325367-26.179439-58.520605-58.520605-58.520605L146.285714 87.765109c-32.325367 0-58.520605 26.179439-58.520605 58.520605l0 731.428571c0 32.293768 26.179439 58.520605 58.520605 58.520605 0 0 121.275423 0 277.941277 0 14.393162 0 28.960116 0 43.890454 0l14.630151 0c24.220326 0 43.890454 19.638529 43.890454 43.890454 0 24.220326-19.654329 43.890454-43.890454 43.890454l-14.630151 0c-14.898739 0-29.465694 0-43.890454 0-171.88058 0-307.20158 0-307.20158 0C52.406277 1024 0 971.593723 0 906.974588L0 117.025412C0 52.406277 52.406277 0 117.025412 0L819.19368 0c64.634934 0 117.025412 52.406277 117.025412 117.025412 0 0 0 104.243778 0 277.941277 0 14.21937 0 28.723127 0 43.890454l0 14.630151C936.234891 477.70762 916.564763 497.377748 892.344437 497.377748zM528.123185 474.816349c35.137642-23.604153 58.299415-63.671177 58.299415-109.17316 0-72.613581-58.820792-131.434373-131.402774-131.434373-72.550383 0-131.402774 58.820792-131.402774 131.434373 0 45.56518 23.24077 85.695401 58.473208 109.267956 0 0 31.756592 15.688704 29.212905 65.977875-2.385694 46.829124-29.212905 53.275238-29.212905 53.275238-72.060605 33.620909-116.820021 107.008656-116.820021 194.979155l0 87.622915-87.622915 0 0-87.622915c0-107.893416 56.419299-201.109284 143.347045-251.698641-51.110734-40.067024-84.557851-101.763288-84.557851-171.785784 0-121.006835 97.924058-219.041489 218.757101-219.041489s218.757101 98.050453 218.757101 219.041489c0 71.555028-34.489871 134.610032-87.591317 174.36107 0 0.126394-29.402496 12.560443-51.110734-12.355052C507.441902 495.75042 528.123185 474.816349 528.123185 474.816349z" /></svg>